<svg width="60" height="60" viewBox="0 0 60 60" fill="none" xmlns="http://www.w3.org/2000/svg">
<g id="home">
<path id="Vector" d="M30.6516 11.8688C30.4771 11.7019 30.245 11.6087 30.0035 11.6087C29.7621 11.6087 29.5299 11.7019 29.3555 11.8688L7.78125 32.4785C7.68963 32.5662 7.61673 32.6715 7.56698 32.7881C7.51723 32.9047 7.49165 33.0302 7.4918 33.157L7.48828 52.5C7.48828 53.4946 7.88337 54.4484 8.58663 55.1516C9.28989 55.8549 10.2437 56.25 11.2383 56.25H22.5C22.9973 56.25 23.4742 56.0525 23.8258 55.7008C24.1775 55.3492 24.375 54.8723 24.375 54.375V38.4375C24.375 38.1889 24.4738 37.9504 24.6496 37.7746C24.8254 37.5988 25.0639 37.5 25.3125 37.5H34.6875C34.9361 37.5 35.1746 37.5988 35.3504 37.7746C35.5262 37.9504 35.625 38.1889 35.625 38.4375V54.375C35.625 54.8723 35.8225 55.3492 36.1742 55.7008C36.5258 56.0525 37.0027 56.25 37.5 56.25H48.757C49.7516 56.25 50.7054 55.8549 51.4087 55.1516C52.1119 54.4484 52.507 53.4946 52.507 52.5V33.157C52.5072 33.0302 52.4816 32.9047 52.4318 32.7881C52.3821 32.6715 52.3092 32.5662 52.2176 32.4785L30.6516 11.8688Z" fill="black"/>
<path id="Vector_2" d="M57.5285 28.6113L48.7629 20.2254V7.5C48.7629 7.00272 48.5653 6.52581 48.2137 6.17417C47.8621 5.82254 47.3852 5.625 46.8879 5.625H41.2629C40.7656 5.625 40.2887 5.82254 39.9371 6.17417C39.5854 6.52581 39.3879 7.00272 39.3879 7.5V11.25L32.6004 4.76016C31.9652 4.11797 31.0207 3.75 30 3.75C28.9828 3.75 28.0406 4.11797 27.4055 4.76133L2.47969 28.609C1.75078 29.3121 1.65937 30.4687 2.32265 31.2305C2.48921 31.4227 2.69316 31.5791 2.92207 31.69C3.15098 31.801 3.40007 31.8642 3.65419 31.8758C3.9083 31.8874 4.16212 31.8472 4.40021 31.7576C4.63829 31.6681 4.85565 31.531 5.03906 31.3547L29.3555 8.11875C29.5299 7.95185 29.7621 7.8587 30.0035 7.8587C30.245 7.8587 30.4771 7.95185 30.6516 8.11875L54.9703 31.3547C55.3285 31.6982 55.8084 31.8857 56.3046 31.876C56.8008 31.8664 57.273 31.6603 57.6176 31.3031C58.3371 30.5578 58.2773 29.3273 57.5285 28.6113Z" fill="black"/>
</g>
</svg>
