<svg width="60" height="60" viewBox="0 0 60 60" fill="none" xmlns="http://www.w3.org/2000/svg">
<g id="person-circle">
<path id="Vector" d="M30 5.625C16.5598 5.625 5.625 16.5598 5.625 30C5.625 43.4402 16.5598 54.375 30 54.375C43.4402 54.375 54.375 43.4402 54.375 30C54.375 16.5598 43.4402 5.625 30 5.625ZM24.1148 19.3148C25.5996 17.741 27.6891 16.875 30 16.875C32.3109 16.875 34.3816 17.7469 35.8723 19.3289C37.3828 20.932 38.1176 23.0859 37.9441 25.4016C37.5973 30 34.0348 33.75 30 33.75C25.9652 33.75 22.3957 30 22.0559 25.4004C21.8836 23.066 22.6172 20.9051 24.1148 19.3148ZM30 50.625C27.2466 50.6268 24.5209 50.0757 21.9846 49.0044C19.4482 47.9331 17.1527 46.3633 15.2344 44.3883C16.3331 42.8214 17.733 41.4893 19.3523 40.4695C22.3395 38.5547 26.1199 37.5 30 37.5C33.8801 37.5 37.6605 38.5547 40.6441 40.4695C42.2648 41.4888 43.666 42.821 44.7656 44.3883C42.8474 46.3636 40.552 47.9334 38.0156 49.0048C35.4792 50.0761 32.7534 50.6271 30 50.625Z" fill="black"/>
</g>
</svg>
