<svg width="24" height="24" viewBox="0 0 24 24" fill="none" xmlns="http://www.w3.org/2000/svg">
<g id="Play">
<path id="vector" d="M6.87713 2.5C7.21735 2.5 7.55117 2.5894 7.84291 2.75865L21.0883 10.4434C21.9773 10.9591 22.2656 12.0741 21.7322 12.9337C21.5737 13.1892 21.3526 13.403 21.0883 13.5563L7.84291 21.2411C6.95395 21.7568 5.8009 21.4781 5.26751 20.6185C5.09246 20.3364 5 20.0136 5 19.6846V4.31512V4.31512C5 3.31266 5.84042 2.5 6.87712 2.5H6.87713ZM6.87713 3.86134C6.63922 3.86134 6.43897 4.03355 6.41114 4.26202L6.40785 4.31511V19.6846V19.6846C6.40785 19.9352 6.61779 20.1385 6.87697 20.1385C6.94353 20.1385 7.00934 20.1249 7.07002 20.0984L7.11835 20.0739L20.3642 12.3887C20.5864 12.2597 20.6584 11.9809 20.5249 11.7661C20.4948 11.7176 20.4556 11.675 20.4093 11.6405L20.3642 11.611L7.11833 3.92578C7.04544 3.88359 6.96207 3.86134 6.87712 3.86134H6.87713Z" fill="white"/>
</g>
</svg>
