<svg width="60" height="60" viewBox="0 0 60 60" fill="none" xmlns="http://www.w3.org/2000/svg">
<g id="search">
<path id="Vector" d="M53.5184 49.3816L42.4922 38.3555C45.1468 34.8215 46.5798 30.5199 46.575 26.1C46.575 14.8102 37.3898 5.625 26.1 5.625C14.8102 5.625 5.625 14.8102 5.625 26.1C5.625 37.3898 14.8102 46.575 26.1 46.575C30.5199 46.5798 34.8215 45.1468 38.3555 42.4922L49.3816 53.5184C49.9398 54.0173 50.6678 54.2836 51.4161 54.2627C52.1644 54.2417 52.8764 53.9351 53.4057 53.4057C53.9351 52.8764 54.2417 52.1644 54.2627 51.4161C54.2836 50.6678 54.0173 49.9398 53.5184 49.3816ZM11.475 26.1C11.475 23.2074 12.3327 20.3799 13.9398 17.9748C15.5468 15.5697 17.8309 13.6952 20.5033 12.5883C23.1756 11.4813 26.1162 11.1917 28.9532 11.756C31.7902 12.3203 34.3961 13.7132 36.4414 15.7586C38.4868 17.8039 39.8797 20.4098 40.444 23.2468C41.0083 26.0838 40.7187 29.0244 39.6117 31.6967C38.5048 34.3691 36.6303 36.6532 34.2252 38.2602C31.8201 39.8673 28.9926 40.725 26.1 40.725C22.2226 40.7203 18.5054 39.178 15.7637 36.4363C13.022 33.6946 11.4797 29.9774 11.475 26.1Z" fill="black"/>
</g>
</svg>
