<svg width="16" height="16" viewBox="0 0 16 16" fill="none" xmlns="http://www.w3.org/2000/svg">
<g id="Search">
<path id="vector" d="M3.41449 3.38353C5.7449 1.09441 9.52323 1.09441 11.8536 3.38353C14.1053 5.59534 14.1814 9.13497 12.0818 11.4365L14.5699 13.8808C14.6224 13.9324 14.6231 14.0168 14.5715 14.0693C14.571 14.0699 14.5704 14.0704 14.5699 14.071L14.0569 14.5749C14.005 14.6259 13.9219 14.6259 13.87 14.5749L11.3592 12.1083C9.01621 13.9517 5.58647 13.8067 3.41449 11.6732C1.08409 9.38407 1.08409 5.67266 3.41449 3.38353ZM4.11775 4.07434C2.17575 5.98194 2.17575 9.07478 4.11775 10.9824C6.05976 12.89 9.20837 12.89 11.1504 10.9824C13.0924 9.07478 13.0924 5.98194 11.1504 4.07434C9.20837 2.16673 6.05976 2.16673 4.11775 4.07434Z" fill="#CCCCCC"/>
</g>
</svg>
