<svg width="253" height="193" viewBox="0 0 253 193" fill="none" xmlns="http://www.w3.org/2000/svg">
<path id="Vector" d="M216.857 0H36.1429C26.5604 0.00931253 17.3734 3.40128 10.5976 9.43169C3.82172 15.4621 0.0104637 23.6384 0 32.1667V160.833C0.0104637 169.362 3.82172 177.538 10.5976 183.568C17.3734 189.599 26.5604 192.991 36.1429 193H216.857C226.44 192.991 235.627 189.599 242.402 183.568C249.178 177.538 252.99 169.362 253 160.833V32.1667C252.99 23.6384 249.178 15.4621 242.402 9.43169C235.627 3.40128 226.44 0.00931253 216.857 0ZM171.679 32.1667C177.04 32.1667 182.281 33.5816 186.738 36.2325C191.196 38.8834 194.671 42.6512 196.722 47.0594C198.774 51.4677 199.311 56.3184 198.265 60.9982C197.219 65.678 194.637 69.9767 190.846 73.3506C187.055 76.7246 182.225 79.0222 176.967 79.9531C171.709 80.884 166.258 80.4062 161.305 78.5803C156.352 76.7543 152.118 73.6621 149.14 69.6948C146.161 65.7275 144.571 61.0631 144.571 56.2917C144.579 49.8954 147.437 43.7629 152.519 39.2401C157.601 34.7172 164.492 32.1733 171.679 32.1667ZM36.1429 176.917C31.35 176.917 26.7535 175.222 23.3644 172.206C19.9754 169.19 18.0714 165.099 18.0714 160.833V126.842L71.6306 84.4727C76.7982 80.3938 83.5186 78.2219 90.4229 78.3993C97.3271 78.5767 103.896 81.0902 108.79 85.4276L145.469 118.001L79.2714 176.917H36.1429ZM234.929 160.833C234.929 165.099 233.025 169.19 229.636 172.206C226.247 175.222 221.65 176.917 216.857 176.917H104.831L173.401 115.89C178.256 112.216 184.417 110.192 190.79 110.177C197.162 110.162 203.335 112.158 208.211 115.81L234.929 135.623V160.833Z" fill="black"/>
</svg>
